<svg width="24" height="24" viewBox="0 0 24 24" fill="none" xmlns="http://www.w3.org/2000/svg">
<path d="M7.56474 13.283V13.163H7.44474H7.39084H7.36385L7.33947 13.1746L6.31521 13.6597L6.24658 13.6923V13.7682C6.24658 14.1502 6.12686 14.476 5.88779 14.7516L5.88764 14.7517C5.59203 15.0938 5.20732 15.2654 4.72237 15.2654C4.23742 15.2654 3.85271 15.0938 3.55711 14.7517L3.55695 14.7516C3.32105 14.4796 3.19817 14.1197 3.19817 13.6604V10.6954C3.19817 10.2361 3.32105 9.87618 3.55695 9.60424L3.55711 9.60406C3.85271 9.26196 4.23742 9.09035 4.72237 9.09035C5.20732 9.09035 5.59203 9.26196 5.88764 9.60406L5.88779 9.60424C6.12369 9.87618 6.24658 10.2361 6.24658 10.6954V11.0728V11.1928H6.36658H6.42049H6.44747L6.47186 11.1812L7.49611 10.696L7.56474 10.6635V10.5876C7.56474 9.87311 7.30975 9.24233 6.80499 8.7001C6.2963 8.14973 5.59684 7.88 4.72237 7.88C3.87507 7.88 3.17781 8.15061 2.64203 8.69771L2.64198 8.69776C2.13208 9.21899 1.88 9.88841 1.88 10.6954V13.6604C1.88 14.4674 2.13208 15.1368 2.64198 15.658L2.64203 15.6581C3.17781 16.2052 3.87507 16.4758 4.72237 16.4758C5.56968 16.4758 6.26693 16.2052 6.80272 15.6581L6.80276 15.658C7.31267 15.1368 7.56474 14.4674 7.56474 13.6604V13.283ZM13.3809 9.71188L13.3811 9.71206C13.617 9.984 13.7398 10.3439 13.7398 10.8032C13.7398 11.302 13.6153 11.6565 13.3864 11.8886C13.0398 12.2387 12.6508 12.4083 12.2156 12.4083H10.7992V9.19817H12.2156C12.7006 9.19817 13.0853 9.36978 13.3809 9.71188ZM9.48108 16.4636V16.5836H9.60108H9.65499H9.68197L9.70636 16.5721L10.7306 16.0869L10.7992 16.0544V15.9784V13.6187H12.2156C13.0595 13.6187 13.7565 13.3479 14.2957 12.8012L14.2957 12.8012C14.806 12.2833 15.058 11.6137 15.058 10.8032C15.058 9.99623 14.8059 9.32681 14.296 8.80557L14.296 8.80553C13.7602 8.25842 13.0629 7.98782 12.2156 7.98782H10.1725H10.1456L10.1213 7.99928L9.54988 8.26883L9.48108 8.30128V8.37736V16.4636ZM16.4353 16.4636V16.5836H16.5553H16.6092H16.6361L16.6605 16.5721L17.6848 16.0869L17.7534 16.0544V15.9784V12.7885H20.8018V16.4636V16.5836H20.9218H20.9757H21.0027L21.0271 16.5721L22.0514 16.0869L22.12 16.0544V15.9784V10.6954C22.12 9.87479 21.8683 9.20428 21.3568 8.6965C20.8075 8.15099 20.1112 7.88 19.2776 7.88C18.4303 7.88 17.7331 8.15061 17.1973 8.69771L17.1969 8.69807C16.6874 9.22266 16.4353 9.89182 16.4353 10.6954V16.4636ZM20.4429 9.60406L20.443 9.60424C20.6789 9.87618 20.8018 10.2361 20.8018 10.6954V11.5673H17.7534V10.6954C17.7534 10.2361 17.8763 9.87618 18.1122 9.60424L18.1124 9.60406C18.408 9.26196 18.7927 9.09035 19.2776 9.09035C19.7626 9.09035 20.1473 9.26196 20.4429 9.60406Z" fill="#444444" stroke="#444444" stroke-width="0.24"/>
</svg>
